<?xml version="1.0" standalone="no"?>
<!DOCTYPE svg PUBLIC "-//W3C//DTD SVG 20010904//EN"
 "http://www.w3.org/TR/2001/REC-SVG-20010904/DTD/svg10.dtd">
<svg version="1.0" xmlns="http://www.w3.org/2000/svg"
 width="450.000000pt" height="450.000000pt" viewBox="0 0 450.000000 450.000000"
 preserveAspectRatio="xMidYMid meet">

<g transform="translate(0.000000,450.000000) scale(0.100000,-0.100000)"
fill="#000000" stroke="none">
<path d="M2188 4229 c-43 -75 -85 -162 -98 -205 -11 -38 -10 -47 14 -99 14
-32 26 -69 26 -83 0 -19 -64 -154 -85 -180 -1 -1 -31 4 -66 13 -75 17 -177 19
-269 5 -112 -18 -226 -60 -414 -152 -99 -50 -215 -101 -256 -115 -133 -46
-297 -33 -317 25 -18 51 -74 69 -106 34 -48 -53 0 -142 98 -183 l54 -22 -34
-91 c-33 -92 -448 -1168 -503 -1306 -25 -64 -33 -75 -56 -78 -14 -2 -26 -6
-26 -8 0 -3 12 -31 27 -62 93 -192 394 -329 677 -308 268 19 492 142 581 319
l26 52 -25 3 c-13 2 -29 9 -34 15 -5 7 -69 167 -142 357 -73 190 -180 467
-237 615 -96 247 -183 475 -183 480 0 1 37 5 83 8 104 8 204 34 343 88 225 86
329 118 426 131 110 14 212 3 290 -31 44 -19 46 -21 53 -73 8 -57 24 -95 61
-144 l23 -31 -6 -847 -6 -848 -34 -40 c-18 -22 -34 -41 -35 -41 -1 -1 -4 -97
-7 -214 -6 -194 -8 -214 -27 -240 -43 -58 -122 -86 -333 -118 -114 -17 -167
-39 -195 -83 -18 -27 -25 -30 -91 -35 -106 -8 -187 -57 -214 -130 -24 -62
-108 -57 1039 -57 l1050 0 0 22 c0 12 -11 40 -24 63 -34 57 -105 94 -196 102
-65 5 -72 8 -95 39 -37 48 -68 61 -191 79 -132 19 -250 50 -292 75 -59 36 -66
63 -73 290 -3 113 -7 206 -8 207 0 1 -16 19 -33 39 l-33 37 -3 853 -3 852 31
48 c32 51 50 102 50 145 0 22 8 30 52 49 157 68 373 43 648 -75 137 -59 269
-96 383 -108 105 -11 108 -12 102 -34 -3 -12 -89 -238 -191 -500 -102 -263
-222 -572 -266 -688 -89 -233 -100 -255 -128 -255 -27 0 -25 -12 12 -82 63
-118 215 -221 398 -270 119 -31 320 -32 435 -1 206 56 342 151 408 287 32 65
32 66 8 66 -10 0 -23 6 -29 13 -6 6 -63 147 -127 312 -222 570 -357 920 -400
1037 l-42 117 47 16 c57 19 115 74 124 118 9 45 -20 82 -65 82 -29 0 -37 -5
-54 -39 -27 -52 -75 -69 -170 -63 -100 8 -206 45 -402 141 -204 100 -285 131
-400 151 -108 19 -181 19 -279 0 -43 -8 -78 -14 -79 -12 -16 20 -85 165 -85
178 0 9 11 41 25 71 14 29 25 65 25 79 0 15 -28 84 -63 154 l-63 128 -26 -44z
m-1408 -1759 l0 -670 -261 0 c-244 0 -261 1 -257 18 4 12 460 1197 505 1310 3
6 7 12 9 12 2 0 4 -301 4 -670z m2968 419 c247 -634 422 -1088 422 -1093 0 -3
-119 -6 -265 -6 l-265 0 0 678 c1 585 3 674 15 651 7 -14 49 -117 93 -230z
m-2874 145 c18 -49 59 -152 89 -229 115 -287 387 -994 387 -1005 0 -7 -80 -10
-262 -8 l-263 3 -3 605 c-3 538 1 740 14 728 2 -3 19 -45 38 -94z m2724 -576
l-3 -663 -254 -3 c-140 -1 -258 1 -262 5 -4 5 82 240 192 523 288 744 311 800
320 800 5 0 8 -286 7 -662z"/>
</g>
</svg>
